<svg xmlns="http://www.w3.org/2000/svg" viewBox="0 0 64 64"><path d="M17.58,17.42l-4.14-4.14,0,29.91,0,1.39a10.06,10.06,0,0,0,.35,2.17L46.63,58.31l8.2-3.63h0L17.58,17.42Z" fill="#aeaeae"/><path d="M13.86,46.75h0s0,0,0,0,0,0,0,0Zm41,7.93-8.2,3.63L13.85,46.75a15.62,15.62,0,0,0,3.5,6.58L28,64l23.79,0,3-9.32Z" fill="#c3c3c3"/><path d="M13.56,13.28.81,32.53C-.24,33.66.28,36,2,37.71l7.35,7.42L14,46.76a10,10,0,0,1-.35-2.17l0-1.4V13.29Z" fill="#818181"/><path d="M46.9,13.67a10.66,10.66,0,0,0-2.17-.34l-1.48-.05H13.44l41.4,41.38,3.63-8.2L46.9,13.67Z" fill="#818181"/><path d="M46.86,13.66h0Zm6.62,3.52a15.43,15.43,0,0,0-6.58-3.51l11.57,32.8-3.64,8.2,8.88-2.84,0-24.35L53.48,17.18Z" fill="#a2a2a2"/><path d="M45.28,9.07l-7.4-7.36C36.15,0,33.82-.51,32.7.54L13.46,13.28h29.8l1.48.05a10,10,0,0,1,2.17.34l-1.63-4.6Z" fill="#aeaeae"/></svg>
